<svg width="24" height="24" viewBox="0 0 24 24" fill="none" xmlns="http://www.w3.org/2000/svg">
<path d="M4.77589 9.10588L5.64789 14.9999H18.3839L19.2509 9.01988L15.7579 12.0399L12.0029 7.21288L8.09389 12.0239L4.77589 9.10588ZM14.8139 7.56888L14.7359 7.63588L14.8769 7.64988L16.0439 9.14888L17.4809 7.90688L17.6209 7.92088L17.5589 7.83888L19.9719 5.75288C20.1261 5.61979 20.3174 5.53699 20.52 5.51556C20.7226 5.49413 20.9269 5.5351 21.1056 5.63298C21.2843 5.73085 21.4288 5.88097 21.5198 6.06324C21.6108 6.24551 21.644 6.45123 21.6149 6.65288L20.1149 16.9999H3.92189L2.39889 6.69988C2.36864 6.49711 2.40143 6.28995 2.49284 6.10645C2.58424 5.92294 2.72984 5.77197 2.90991 5.67397C3.08998 5.57597 3.29581 5.53568 3.49954 5.55856C3.70327 5.58144 3.89504 5.66638 4.04889 5.80188L6.34989 7.82688L6.29989 7.88688L6.40889 7.87888L7.85289 9.14888L9.06489 7.65588L9.17389 7.64688L9.11389 7.59488L11.2449 4.97588C11.3398 4.85919 11.4598 4.76542 11.596 4.70155C11.7322 4.63768 11.8811 4.60536 12.0315 4.60699C12.1819 4.60863 12.33 4.64417 12.4648 4.71099C12.5996 4.7778 12.7175 4.87415 12.8099 4.99288L14.8149 7.56888H14.8139ZM3.99989 17.9999H19.9999V18.9999C19.9999 19.2651 19.8945 19.5194 19.707 19.707C19.5195 19.8945 19.2651 19.9999 18.9999 19.9999H4.99989C4.73467 19.9999 4.48032 19.8945 4.29278 19.707C4.10525 19.5194 3.99989 19.2651 3.99989 18.9999V17.9999Z" fill="#D93939"/>
</svg>
