<svg width="24" height="24" viewBox="0 0 24 24" fill="none" xmlns="http://www.w3.org/2000/svg">
<path d="M21.579 6.85507C21.719 6.39007 21.579 6.04907 20.917 6.04907H18.724C18.166 6.04907 17.911 6.34407 17.771 6.66807C17.771 6.66807 16.656 9.38707 15.076 11.1501C14.566 11.6631 14.333 11.8251 14.055 11.8251C13.916 11.8251 13.714 11.6631 13.714 11.1981V6.85507C13.714 6.29707 13.553 6.04907 13.088 6.04907H9.642C9.294 6.04907 9.084 6.30707 9.084 6.55307C9.084 7.08107 9.874 7.20307 9.955 8.69107V11.9191C9.955 12.6261 9.828 12.7551 9.548 12.7551C8.805 12.7551 6.997 10.0261 5.924 6.90207C5.715 6.29507 5.504 6.05007 4.944 6.05007H2.752C2.125 6.05007 2 6.34507 2 6.66907C2 7.25107 2.743 10.1311 5.461 13.9401C7.273 16.5411 9.824 17.9511 12.148 17.9511C13.541 17.9511 13.713 17.6381 13.713 17.0981V15.1321C13.713 14.5061 13.846 14.3801 14.287 14.3801C14.611 14.3801 15.169 14.5441 16.47 15.7971C17.956 17.2831 18.202 17.9501 19.037 17.9501H21.229C21.855 17.9501 22.168 17.6371 21.988 17.0191C21.791 16.4041 21.081 15.5091 20.139 14.4501C19.627 13.8461 18.862 13.1961 18.629 12.8711C18.304 12.4521 18.398 12.2671 18.629 11.8951C18.63 11.8961 21.301 8.13407 21.579 6.85507Z" fill="white"/>
</svg>
