<svg width="20" height="20" viewBox="0 0 20 20" fill="none" xmlns="http://www.w3.org/2000/svg">
<g clip-path="url(#clip0)">
<path d="M13.082 15.0583L10 12.1733L6.918 15.0583L3.83919 12.1764L1.07775 14.7923L0 13.6546L3.83272 10.0239L6.91796 12.9118L9.99998 10.0269L13.082 12.9118L16.1672 10.0239L20 13.6546L18.9223 14.7923L16.1609 12.1764L13.082 15.0583ZM16.1609 7.09417L18.9223 9.71007L20 8.57242L16.1673 4.94165L13.082 7.82959L10 4.94463L6.918 7.82959L3.83276 4.94165L0 8.57242L1.07771 9.71007L3.83915 7.09413L6.91796 9.97608L9.99998 7.09115L13.082 9.97608L16.1609 7.09417Z" fill="#D93939"/>
</g>
<defs>
<clipPath id="clip0">
<rect width="20" height="20" fill="white"/>
</clipPath>
</defs>
</svg>
