<svg width="20" height="20" viewBox="0 0 20 20" fill="none" xmlns="http://www.w3.org/2000/svg">
<path d="M14.6094 0C12.6586 0 10.9464 1.04164 10 2.59797C9.05355 1.04164 7.34145 0 5.39062 0C2.4182 0 0 2.41824 0 5.39062C0 8.36301 2.4182 10.7812 5.39062 10.7812V9.21875C3.2798 9.21875 1.5625 7.50145 1.5625 5.39062C1.5625 3.2798 3.2798 1.5625 5.39062 1.5625C7.50145 1.5625 9.21875 3.2798 9.21875 5.39062V20H10.7812V5.39062C10.7812 3.2798 12.4986 1.5625 14.6094 1.5625C16.7202 1.5625 18.4375 3.2798 18.4375 5.39062C18.4375 7.50145 16.7202 9.21875 14.6094 9.21875V10.7812C17.5818 10.7812 20 8.36301 20 5.39062C20 2.41824 17.5818 0 14.6094 0Z" fill="#D93939"/>
</svg>
