<svg width="20" height="20" viewBox="0 0 20 20" fill="none" xmlns="http://www.w3.org/2000/svg">
<g clip-path="url(#clip0)">
<path d="M3.29072 2.96954C4.59473 2.3301 6.68492 1.56785 9.23736 1.56785C10.9821 1.56785 12.6645 1.98548 14.2527 2.81027C12.0123 3.23343 10.3123 5.20507 10.3123 7.56665C10.3123 8.85934 10.8167 10.0712 11.7326 10.979C12.645 11.8833 13.8597 12.3813 15.153 12.3813C16.4462 12.3813 17.661 11.8833 18.5734 10.979C19.4892 10.0712 19.9936 8.85938 19.9936 7.56665C19.9936 6.25889 19.4721 5.07078 18.6264 4.19883L18.6267 4.1986C18.5899 4.15503 17.7068 3.11933 16.1152 2.08932C14.0096 0.726631 11.6312 0.00634766 9.23732 0.00634766C6.36017 0.00634766 4.01276 0.869509 2.55013 1.59366C0.956305 2.38276 0.0382959 3.17831 0 3.21177L1.02649 4.38848C1.03469 4.38137 1.86295 3.66964 3.29072 2.96954ZM15.153 10.8198C13.3448 10.8198 11.8738 9.36043 11.8738 7.56665C11.8738 5.75851 13.3448 4.28749 15.153 4.28749C16.9611 4.28749 18.4321 5.75851 18.4321 7.56665C18.4321 9.36043 16.9611 10.8198 15.153 10.8198ZM18.9735 15.6115C18.9653 15.6186 18.137 16.3303 16.7093 17.0304C15.4053 17.6699 13.3151 18.4321 10.7626 18.4321C9.02847 18.4321 7.35028 18.0138 5.7593 17.1874C7.99378 16.7595 9.68766 14.7907 9.68766 12.4334C9.68766 11.1407 9.18325 9.92878 8.26739 9.02104C7.355 8.11669 6.14027 7.61869 4.84699 7.61869C3.55371 7.61869 2.33898 8.11669 1.42659 9.02104C0.510729 9.92878 0.0063241 11.1406 0.0063241 12.4334C0.0063241 13.7155 0.507607 14.8827 1.3242 15.7496L1.3233 15.7504C1.36062 15.7945 2.25528 16.8417 3.85813 17.884C5.98061 19.2641 8.36815 19.9937 10.7626 19.9937C13.6398 19.9937 15.9872 19.1305 17.4498 18.4064C19.0437 17.6172 19.9617 16.8217 20 16.7882L18.9735 15.6115ZM4.84703 9.18019C6.65518 9.18019 8.12619 10.6395 8.12619 12.4333C8.12619 14.2415 6.65518 15.7125 4.84703 15.7125C3.03889 15.7125 1.56787 14.2415 1.56787 12.4333C1.56787 10.6395 3.03889 9.18019 4.84703 9.18019Z" fill="#D93939"/>
</g>
<defs>
<clipPath id="clip0">
<rect width="20" height="20" fill="white"/>
</clipPath>
</defs>
</svg>
