<svg width="20" height="20" viewBox="0 0 20 20" fill="none" xmlns="http://www.w3.org/2000/svg">
<g clip-path="url(#clip0)">
<path d="M16.4844 10.2344C15.1432 10.2344 13.9087 10.5028 12.8125 11.0234V4.60938C12.8125 2.06777 10.7447 0 8.20312 0C6.89863 0 5.7191 0.544844 4.87977 1.41875C4.45453 0.578047 3.58285 0 2.57812 0C1.15652 0 0 1.15652 0 2.57812V4.14062H1.5625V2.57812C1.5625 2.01813 2.01813 1.5625 2.57812 1.5625C3.13812 1.5625 3.59375 2.01813 3.59375 2.57812V13.8672H5.15625V4.60938C5.15625 2.92934 6.52309 1.5625 8.20312 1.5625C9.88316 1.5625 11.25 2.92934 11.25 4.60938V11.9922C11.25 11.9991 11.2502 12.0059 11.2502 12.0127C10.8414 12.3471 10.4614 12.727 10.1132 13.1518C8.67996 14.9001 7.89062 17.3321 7.89062 20H9.45312C9.45312 17.7182 10.1324 15.4253 11.5791 13.8459C11.836 14.5411 12.2386 15.1782 12.7717 15.7177C13.7579 16.7159 15.0764 17.2656 16.4844 17.2656C18.4229 17.2656 20 15.6885 20 13.75C20 11.8115 18.4229 10.2344 16.4844 10.2344ZM16.4844 15.7031C14.7185 15.7031 13.24 14.4368 12.8907 12.7555C13.8665 12.1516 15.0599 11.7969 16.4844 11.7969C17.5613 11.7969 18.4375 12.673 18.4375 13.75C18.4375 14.827 17.5613 15.7031 16.4844 15.7031Z" fill="#D93939"/>
</g>
<defs>
<clipPath id="clip0">
<rect width="20" height="20" fill="white"/>
</clipPath>
</defs>
</svg>
