<svg width="20" height="20" viewBox="0 0 20 20" fill="none" xmlns="http://www.w3.org/2000/svg">
<path d="M18.4375 16.7969C18.4375 17.2391 18.2641 17.6538 17.9493 17.9646C17.6346 18.2752 17.2182 18.4414 16.7748 18.4374C15.8823 18.4258 15.1562 17.6737 15.1562 16.7608V3.51562C15.1562 1.57711 13.5791 0 11.6406 0C9.70211 0 8.125 1.57711 8.125 3.51562V11.5966C7.26141 10.8 6.10852 10.3125 4.84375 10.3125C2.17289 10.3125 0 12.4854 0 15.1562C0 17.8271 2.17289 20 4.84375 20C7.51461 20 9.6875 17.8271 9.6875 15.1562V3.51562C9.6875 2.43867 10.5637 1.5625 11.6406 1.5625C12.7176 1.5625 13.5938 2.43867 13.5938 3.51562V16.7608C13.5938 18.5241 15.0117 19.9771 16.7546 19.9997C16.7689 19.9999 16.7831 20 16.7975 20C17.6453 20 18.4428 19.673 19.047 19.0765C19.6616 18.4699 20 17.6603 20 16.7969H18.4375ZM4.84375 18.4375C3.03445 18.4375 1.5625 16.9655 1.5625 15.1562C1.5625 13.347 3.03445 11.875 4.84375 11.875C6.65305 11.875 8.125 13.347 8.125 15.1562C8.125 16.9655 6.65305 18.4375 4.84375 18.4375Z" fill="#D93939"/>
</svg>
