<svg width="20" height="20" viewBox="0 0 20 20" fill="none" xmlns="http://www.w3.org/2000/svg">
<path d="M0 18.4375H20V20H0V18.4375ZM20 14.6484V16.2109H0V14.6484H5.30117C3.26305 13.1789 1.93359 10.7849 1.93359 8.08594C1.93359 3.62734 5.5609 0 10.0195 0C14.4782 0 18.1055 3.62734 18.1055 8.08594C18.1055 10.7849 16.776 13.1789 14.7379 14.6484H20ZM10.0195 14.6094C13.6166 14.6094 16.543 11.683 16.543 8.08594C16.543 4.48891 13.6166 1.5625 10.0195 1.5625C6.4225 1.5625 3.49609 4.48891 3.49609 8.08594C3.49609 11.683 6.4225 14.6094 10.0195 14.6094Z" fill="#D93939"/>
</svg>
