<svg width="20" height="20" viewBox="0 0 20 20" fill="none" xmlns="http://www.w3.org/2000/svg">
<g clip-path="url(#clip0)">
<path d="M17.6638 16.3799C16.8821 15.1091 15.9649 13.1587 15.7948 10.8178H18.5451V9.25253H15.7977C15.9745 6.91854 16.8882 4.95184 17.6679 3.66309C18.6235 2.08343 19.5961 1.13927 19.6058 1.12992L19.0637 0.56537L18.5226 0C18.4779 0.0427314 17.4166 1.06707 16.3556 2.80854C15.1008 4.86806 14.3733 7.07972 14.2288 9.25253H5.77098C5.62643 7.07976 4.8989 4.86806 3.64415 2.80854C2.58319 1.06707 1.52183 0.0427314 1.47714 0L0.393982 1.12992C0.403687 1.13927 1.37622 2.08343 2.33185 3.66309C3.1115 4.95184 4.02525 6.91854 4.20209 9.25253H1.48383V10.8178H4.20495C4.03484 13.1587 3.11772 15.1091 2.33599 16.3799C1.38248 17.9298 0.412021 18.8452 0.403217 18.8534L1.46872 20C1.51353 19.9584 2.5779 18.9609 3.64102 17.2456C4.90446 15.2071 5.63418 13.0002 5.77329 10.8178H14.2264C14.3656 13.0002 15.0953 15.2071 16.3587 17.2456C17.4218 18.9609 18.4862 19.9584 18.531 20L19.5975 18.8542C19.5878 18.8452 18.6173 17.9298 17.6638 16.3799Z" fill="#D93939"/>
</g>
<defs>
<clipPath id="clip0">
<rect width="20" height="20" fill="white"/>
</clipPath>
</defs>
</svg>
