<svg width="20" height="20" viewBox="0 0 20 20" fill="none" xmlns="http://www.w3.org/2000/svg">
<g clip-path="url(#clip0)">
<path d="M18.4358 14.5323V17.5933C18.009 17.3852 17.6277 17.0805 17.2864 16.6758C16.6213 15.8873 16.0975 14.702 15.7297 13.1532C14.999 10.0768 14.999 6.11972 14.999 3.23037C14.999 2.35961 14.6577 1.54309 14.0379 0.931338C13.4182 0.319624 12.5968 -0.0102714 11.726 0.000273383C10.7602 0.0128099 9.8934 0.455339 9.30441 1.14321C8.70933 0.444443 7.82412 0 6.83654 0C5.95188 0 5.14922 0.357194 4.56411 0.934618C4.09092 0.364068 3.377 0 2.57958 0C1.15826 0 0.00196779 1.15629 0.00196779 2.57761V4.1398H1.56416V2.57761C1.56416 2.01772 2.01969 1.56219 2.57958 1.56219C3.13947 1.56219 3.595 2.01772 3.595 2.57761V15.4657H5.15719V3.24154H5.16C5.16 2.31555 5.91208 1.56219 6.83654 1.56219C7.76253 1.56219 8.5159 2.31555 8.5159 3.24154V15.4657H10.0781V3.26689C10.0781 2.33895 10.8264 1.5743 11.7462 1.56235C11.7537 1.56223 11.7611 1.56219 11.7685 1.56219C12.2104 1.56219 12.6258 1.73247 12.9404 2.04311C13.2605 2.35906 13.4368 2.7807 13.4368 3.23037C13.4368 6.19689 13.4368 10.2597 14.2097 13.5142C14.6406 15.3284 15.2564 16.692 16.0922 17.683C16.3328 17.9682 16.5905 18.2196 16.8644 18.4378H14.5303V20H19.998V19.4939V17.9317V14.5324H18.4358V14.5323Z" fill="#D93939"/>
</g>
<defs>
<clipPath id="clip0">
<rect width="20" height="20" fill="white"/>
</clipPath>
</defs>
</svg>
