<svg width="20" height="20" viewBox="0 0 20 20" fill="none" xmlns="http://www.w3.org/2000/svg">
<path d="M19.9811 1.07275L18.8375 0.00831926C18.8285 0.0180055 17.9149 0.986632 16.3678 1.93835C14.9702 2.79812 12.6941 3.83018 10.0351 3.83018C7.34009 3.83018 5.08904 2.78965 3.67501 1.93421C2.09833 0.980383 1.15595 0.00968627 1.14662 0L0.0188293 1.08115C0.0615192 1.12576 1.08393 2.18511 2.82207 3.24408C3.91177 3.90798 5.04421 4.42393 6.19082 4.78392C3.64665 6.14731 1.91207 8.83228 1.91207 11.9151C1.91207 16.3731 5.53891 20 9.99697 20C14.455 20 18.0819 16.3731 18.0819 11.9151C18.0819 8.84653 16.3635 6.17187 13.8385 4.80263C14.9982 4.44135 16.1393 3.91814 17.2319 3.24096C18.944 2.17984 19.9395 1.11744 19.9811 1.07275ZM16.5196 11.9151C16.5196 15.5117 13.5935 18.4377 9.99697 18.4377C6.4004 18.4377 3.47437 15.5117 3.47437 11.9151C3.47437 8.3348 6.46078 5.39248 10.0351 5.39248C13.6284 5.39248 16.5196 8.35089 16.5196 11.9151Z" fill="#D93939"/>
</svg>
