<svg width="20" height="20" viewBox="0 0 20 20" fill="none" xmlns="http://www.w3.org/2000/svg">
<g clip-path="url(#clip0)">
<path d="M17.2995 17.1171C17.0221 16.772 16.769 16.3554 16.5414 15.8703C16.956 15.4039 17.3407 14.9144 17.6922 14.403C19.1804 12.2383 20 9.79664 20 7.52789C20 6.65695 19.6586 5.84027 19.0387 5.2284C18.4189 4.61656 17.5977 4.28504 16.7263 4.29719C16.0934 4.30539 15.5029 4.49684 15.0041 4.81918C15.0001 4.25469 15 3.72047 15 3.23102C15 2.36008 14.6586 1.5434 14.0387 0.931523C13.4189 0.319687 12.5988 -0.0102734 11.7263 0.000273438C10.7598 0.0128125 9.89234 0.455977 9.30324 1.14469C8.70855 0.445078 7.82344 0 6.83594 0C5.95109 0 5.14828 0.357266 4.56305 0.934844C4.08977 0.364141 3.3757 0 2.57812 0C1.15652 0 0 1.15652 0 2.57812V4.14062H1.5625V2.57812C1.5625 2.01813 2.01813 1.5625 2.57812 1.5625C3.13812 1.5625 3.59375 2.01813 3.59375 2.57812V15.4688H5.15625V3.24219H5.15906C5.15906 2.31602 5.91129 1.5625 6.83594 1.5625C7.76059 1.5625 8.51281 2.31602 8.51281 3.24254L8.51844 15.4663L10.0809 15.4655L10.0753 3.2675H10.0781C10.0781 2.33938 10.8266 1.57457 11.7466 1.56262C12.1973 1.55617 12.621 1.72754 12.9411 2.04348C13.2612 2.35953 13.4375 2.78125 13.4375 3.23102V7.53906C13.5197 9.61258 13.7722 11.8473 14.209 13.7613C14.3547 14.3998 14.5215 14.9846 14.7105 15.5191C13.5066 16.7039 11.9998 17.7599 10.1722 18.5566L10.7966 19.9889C12.5141 19.2402 14.0611 18.2424 15.3821 17.0415C15.5958 17.4304 15.8286 17.7813 16.0818 18.0962C17.0975 19.3595 18.4157 20 20 20V18.4375C18.8972 18.4375 18.0139 18.0056 17.2995 17.1171ZM16.7466 5.85953C17.1974 5.85187 17.621 6.02445 17.9411 6.34039C18.2612 6.65641 18.4375 7.07812 18.4375 7.52789C18.4375 9.52816 17.628 11.9665 15.9213 14.1603C15.8544 13.9211 15.7914 13.6722 15.7324 13.4136C15.3225 11.6175 15.1421 9.51219 15.0626 7.51949C15.0875 6.62668 15.8482 5.87117 16.7466 5.85953Z" fill="#D93939"/>
</g>
<defs>
<clipPath id="clip0">
<rect width="20" height="20" fill="white"/>
</clipPath>
</defs>
</svg>
